<svg width="131.000000" height="27.000000" viewBox="0 0 131 27" fill="none" xmlns="http://www.w3.org/2000/svg" xmlns:xlink="http://www.w3.org/1999/xlink">
	<desc>
			Created with Pixso.
	</desc>
	<defs/>
	<path id="Interno" d="M-0.13 25.59L-0.13 26L10.16 26L10.16 25.59L9.36 25.27Q8.56 24.96 8.29 24.5Q8.04 24.03 8.04 23.23L8.04 2.35Q8.04 1.55 8.29 1.07Q8.56 0.59 9.36 0.31L10.16 0L10.16 -0.4L-0.13 -0.4L-0.13 0L0.67 0.31Q1.51 0.59 1.75 1.07Q1.99 1.55 1.99 2.35L1.99 23.23Q1.99 24.03 1.73 24.52Q1.48 25 0.67 25.27L-0.13 25.59ZM38.39 25.33Q39.81 26.59 42.35 26.59Q44.36 26.59 45.75 25.8Q46.57 25.34 47.18 24.68Q47.62 24.21 47.96 23.63L47.56 23.23Q46.91 23.95 46.27 24.37Q46.14 24.46 45.99 24.53Q45.46 24.79 44.79 24.79Q44.3 24.79 43.9 24.61Q43.52 24.43 43.21 24.08Q42.6 23.36 42.6 21.95L42.6 7.56L47.12 7.56L47.12 6.76L42.64 6.76L42.75 1.15L42.35 1.15L39.07 4.79Q38.19 5.67 37.29 6.2Q36.4 6.72 35.16 6.99L34.2 7.16L34.2 7.56L36.95 7.56L36.95 21.24Q36.95 23.99 38.32 25.27Q38.35 25.29 38.37 25.31Q38.38 25.32 38.39 25.33ZM11.84 25.59L11.84 26L21.23 26L21.23 25.59L20.88 25.48Q20.24 25.3 19.89 24.87Q19.47 24.37 19.47 23.51L19.47 9.91Q21.55 8.15 23.31 8.15Q24.6 8.15 25.24 8.8Q25.88 9.44 25.88 10.71L25.88 23.48Q25.88 24.27 25.49 24.77Q25.14 25.23 24.47 25.44L23.95 25.59L23.95 26L33.4 26L33.4 25.59L33.04 25.48Q32.27 25.28 31.89 24.78Q31.51 24.29 31.51 23.51L31.51 11.99Q31.51 9.03 30.09 7.6Q29.95 7.45 29.79 7.32Q28.41 6.15 26.04 6.15Q24.32 6.15 22.55 6.95Q21.01 7.65 19.75 8.69Q19.57 8.84 19.39 8.99L19.07 6.59L18.67 6.19L11.84 8.51L11.84 8.91L12.43 9.07Q13.23 9.24 13.52 9.66Q13.8 10.08 13.8 10.96L13.8 23.48Q13.8 24.33 13.38 24.83Q13.03 25.26 12.39 25.44L11.84 25.59ZM63.55 7.22Q61.71 6.15 59.11 6.15Q58.23 6.15 57.37 6.31Q55.82 6.58 54.37 7.35Q53.76 7.67 53.22 8.08Q51.73 9.17 50.67 10.86Q49.23 13.15 49.23 16.43Q49.23 19.6 50.47 21.88Q51.21 23.24 52.3 24.23Q53.03 24.89 53.91 25.38Q53.99 25.42 54.07 25.46Q56.22 26.59 58.96 26.59Q61.84 26.59 63.89 25.35Q64.54 24.96 65.11 24.47Q66.34 23.41 67.19 21.91L66.79 21.55Q65.72 22.79 64.48 23.44Q63.24 24.07 61.23 24.07Q59 24.07 57.6 22.99Q57.14 22.64 56.77 22.18Q55.28 20.27 55.24 15.96L67.15 15.96Q67.28 15.59 67.32 15.14Q67.36 14.68 67.36 14.24Q67.36 12.01 66.45 10.25Q66.41 10.17 66.37 10.1Q65.97 9.34 65.41 8.71Q64.63 7.83 63.55 7.22ZM69.36 25.59L69.36 26L79.72 26L79.72 25.59L78.44 25.23Q77.82 25.06 77.48 24.65Q77.03 24.13 77.03 23.23L77.03 12.08Q77.28 11.43 77.53 10.94Q77.76 10.51 78.08 10.18Q78.14 10.13 78.19 10.08Q78.54 9.63 78.94 9.58Q79.04 9.56 79.15 9.58Q79.23 9.59 79.3 9.61Q79.74 9.72 80.08 10.19L80.16 10.27Q81.15 11.57 82.38 11.87Q82.74 11.95 83.12 11.95Q83.69 11.95 84.18 11.74Q84.61 11.56 84.97 11.22Q85.09 11.11 85.18 10.99Q85.75 10.28 85.75 9.11Q85.75 8.25 85.39 7.59Q85.21 7.27 84.95 6.99Q84.86 6.9 84.77 6.82Q83.98 6.15 82.64 6.15Q81.55 6.15 80.45 6.76Q80.42 6.77 80.39 6.79Q79.33 7.38 78.46 8.3Q77.61 9.19 77.05 10.23Q77.02 10.29 76.99 10.35L76.99 10.04L76.63 6.59L76.23 6.19L69.36 8.51L69.36 8.91L69.95 9.07Q70.75 9.24 71.06 9.66Q71.36 10.08 71.36 10.96L71.36 23.48Q71.36 24.24 71.06 24.72Q70.75 25.19 69.95 25.44L69.36 25.59ZM87 25.59L87 26L96.39 26L96.39 25.59L96.04 25.48Q95.4 25.3 95.05 24.87Q94.63 24.37 94.63 23.51L94.63 9.91Q96.71 8.15 98.47 8.15Q99.76 8.15 100.4 8.8Q101.04 9.44 101.04 10.71L101.04 23.48Q101.04 24.27 100.65 24.77Q100.3 25.23 99.63 25.44L99.11 25.59L99.11 26L108.56 26L108.56 25.59L108.2 25.48Q107.43 25.28 107.05 24.78Q106.67 24.29 106.67 23.51L106.67 11.99Q106.67 9.03 105.25 7.6Q105.11 7.45 104.95 7.32Q103.57 6.15 101.2 6.15Q99.48 6.15 97.71 6.95Q96.17 7.65 94.91 8.69Q94.73 8.84 94.55 8.99L94.23 6.59L93.83 6.19L87 8.51L87 8.91L87.59 9.07Q88.39 9.24 88.68 9.66Q88.96 10.08 88.96 10.96L88.96 23.48Q88.96 24.33 88.54 24.83Q88.19 25.26 87.55 25.44L87 25.59ZM114.95 25.33Q117.2 26.59 120.23 26.59Q123.28 26.59 125.5 25.33Q126.47 24.78 127.25 24.03Q128.25 23.07 128.93 21.78Q130.16 19.47 130.16 16.32Q130.16 13.15 128.86 10.88Q128.09 9.52 126.99 8.55Q126.23 7.87 125.31 7.37Q125.15 7.28 124.98 7.2Q122.87 6.15 120.23 6.15Q117.72 6.15 115.66 7.12Q115.4 7.25 115.14 7.39Q114.18 7.92 113.4 8.63Q112.33 9.6 111.57 10.92Q110.27 13.19 110.27 16.32Q110.27 19.43 111.49 21.76Q112.18 23.05 113.18 24.02Q113.97 24.78 114.95 25.33ZM57.63 7.25Q58.24 6.95 59 6.95Q60.01 6.95 60.7 7.43Q61.39 7.91 61.75 8.88Q62.47 10.8 62.07 15.16L55.24 15.16Q55.28 11.91 55.74 10.14Q56.19 8.36 57.02 7.66Q57.3 7.41 57.63 7.25ZM122.17 25.25Q121.4 25.8 120.23 25.8Q119.11 25.8 118.33 25.28Q118.14 25.15 117.98 25Q117.12 24.2 116.74 22.16Q116.36 20.12 116.36 16.4Q116.36 12.64 116.74 10.59Q117.12 8.55 117.98 7.75Q118.14 7.6 118.33 7.47Q119.11 6.95 120.23 6.95Q121.4 6.95 122.17 7.5Q122.34 7.62 122.48 7.75Q123.32 8.55 123.69 10.59Q124.07 12.64 124.07 16.4Q124.07 20.12 123.69 22.16Q123.32 24.2 122.48 25Q122.34 25.14 122.17 25.25Z" fill="#292F36" fill-opacity="1.000000" fill-rule="evenodd"/>
</svg>
